<?xml version="1.0" encoding="UTF-8" standalone="no"?><!DOCTYPE svg PUBLIC "-//W3C//DTD SVG 1.1//EN" "http://www.w3.org/Graphics/SVG/1.1/DTD/svg11.dtd"><svg width="100%" height="100%" viewBox="0 0 128 128" version="1.1" xmlns="http://www.w3.org/2000/svg" xmlns:xlink="http://www.w3.org/1999/xlink" xml:space="preserve" xmlns:serif="http://www.serif.com/" style="fill-rule:evenodd;clip-rule:evenodd;stroke-linecap:round;stroke-linejoin:round;stroke-miterlimit:1.5;"><rect id="ArtBoard1" x="0" y="0" width="128" height="128" style="fill:none;"/><g id="ArtBoard11" serif:id="ArtBoard1"><path d="M54.564,25.495l-45.207,45.208l42.79,42.79l45.207,-45.207l-42.79,-42.791Z" style="fill:#fff;"/><path d="M90.392,32.798c-3.428,-8.528 -5.363,-15.009 1.145,-22.712c5.427,-6.425 16.824,-6.265 24.286,-1.063c9.3,6.483 8.933,13.317 9.46,19.43c0.775,8.989 -5.493,15.121 -11.053,17.35" style="fill:none;stroke:#000;stroke-width:4.17px;"/><clipPath id="_clip1"><path d="M82.927,19.602c-0.149,3.087 0.486,6.218 1.574,9.572c-0.622,1.044 -0.979,2.263 -0.979,3.565c0,3.854 3.129,6.983 6.983,6.983c3.854,-0 6.983,-3.129 6.983,-6.983c0,-3.187 -2.138,-5.877 -5.056,-6.714c-0.662,-2.135 -1.031,-4.159 -0.84,-6.176c4.899,0.325 8.611,0.978 9.644,2.012c3.706,3.706 2.893,42.243 -0.813,45.949l-52.223,52.222c-3.706,3.707 -9.724,3.707 -13.431,0l-31.338,-31.338c-3.706,-3.706 -3.706,-9.724 0,-13.43l52.223,-52.223c2.119,-2.119 15.506,-3.412 27.273,-3.439Zm-15.484,48.265c-0,-11.154 -9.042,-20.195 -20.195,-20.195l0,-11.309c17.399,0 31.503,14.105 31.503,31.504c0,17.398 -14.104,31.503 -31.503,31.503l0,-11.309c11.153,-0 20.195,-9.041 20.195,-20.194Zm-20.194,-15.718c8.694,-0 15.752,7.058 15.752,15.751c-0,8.694 -7.058,15.752 -15.752,15.752c-8.693,-0 -15.751,-7.058 -15.751,-15.752c-0,-8.693 7.058,-15.751 15.751,-15.751Z"/></clipPath><g clip-path="url(#_clip1)"><path d="M112.023,157.548l41.06,-148.681l-139.106,-38.415l-41.06,148.681l139.106,38.415Z" style="fill:url(#_Linear2);stroke:#000;stroke-width:4.17px;"/></g></g><defs><linearGradient id="_Linear2" x1="0" y1="0" x2="1" y2="0" gradientUnits="userSpaceOnUse" gradientTransform="matrix(-41.0598,148.681,-139.107,-38.4157,83.5299,-10.3406)"><stop offset="0" style="stop-color:#e300c3;stop-opacity:1"/><stop offset="0.57" style="stop-color:#620d98;stop-opacity:1"/><stop offset="1" style="stop-color:#281384;stop-opacity:1"/></linearGradient></defs></svg>